<svg xmlns="http://www.w3.org/2000/svg" width="50" height="51" fill="#178066" viewBox="0 0 50 51"><path d="M41.6667 21.0859C41.6667 23.0372 40.7948 24.8517 39.2744 26.0641C39.9887 27.8834 39.8436 29.8941 38.8755 31.5841C37.9074 33.2738 36.2521 34.4059 34.3341 34.6897C34.05 36.6253 32.9267 38.2936 31.25 39.2691C30.8614 39.4952 30.4552 39.6748 30.0388 39.8113V50.0898H27.3644L20.8333 47.7391L14.3022 50.0898H11.6279V39.8113C11.2114 39.6748 10.8052 39.4952 10.4167 39.2691C8.73992 38.2935 7.61667 36.6253 7.33498 34.6922C5.41444 34.406 3.75921 33.2739 2.79109 31.5841C1.82297 29.8941 1.67791 27.8834 2.39302 26.0674C0.871899 24.8517 0 23.0372 0 21.0859C0 19.1347 0.871899 17.3202 2.39225 16.1078C1.678 14.2886 1.82306 12.2778 2.79118 10.5879C3.7593 8.89795 5.41463 7.76602 7.33265 7.48223C7.61667 5.54668 8.73983 3.87852 10.4167 2.90283C12.0932 1.92725 14.0885 1.78086 15.8905 2.50166C17.0967 0.968555 18.8972 0.0898438 20.8333 0.0898438C22.7695 0.0898438 24.57 0.968555 25.7729 2.50078C27.5779 1.78086 29.5732 1.92715 31.25 2.90273C32.9268 3.87842 34.05 5.54668 34.3317 7.47969C36.2521 7.76592 37.9075 8.89785 38.8756 10.5878C39.8437 12.2777 39.9888 14.2885 39.2736 16.1045C40.7948 17.3202 41.6667 19.1347 41.6667 21.0859ZM27.1318 46.8951V40.0444C26.6734 39.9715 26.2189 39.8474 25.7762 39.6703C24.57 41.2033 22.7695 42.082 20.8333 42.082C18.8972 42.082 17.0967 41.2033 15.8938 39.6711C15.4498 39.8481 14.9943 39.9723 14.5349 40.045V46.8951L20.8333 44.6281L27.1318 46.8951ZM37.4706 23.7666C38.2898 23.1133 38.7597 22.1362 38.7597 21.0859C38.7597 20.0356 38.2898 19.0586 37.4706 18.4053C36.4553 17.5955 36.0939 16.2366 36.5716 15.0237C36.9571 14.0452 36.8792 12.9623 36.358 12.0527C35.8369 11.1432 34.9453 10.5337 33.9118 10.3808C32.6307 10.1912 31.6435 9.19648 31.4555 7.90537C31.3038 6.86377 30.699 5.96514 29.7965 5.43994C28.8938 4.91475 27.8195 4.83643 26.8485 5.22471C25.6449 5.70605 24.2965 5.3418 23.4932 4.31865C22.8451 3.49307 21.8756 3.01953 20.8333 3.01953C19.7911 3.01953 18.8216 3.49307 18.1735 4.31855C17.3702 5.3418 16.022 5.70605 14.8182 5.22471C13.8473 4.83643 12.7728 4.91475 11.8702 5.43994C10.9676 5.96514 10.3629 6.86367 10.2111 7.90537C10.0231 9.19648 9.03595 10.1912 7.75485 10.3808C6.72142 10.5337 5.82975 11.1431 5.30862 12.0527C4.7875 12.9623 4.70959 14.0452 5.09506 15.0237C5.57277 16.2366 5.21143 17.5955 4.19603 18.4053C3.37684 19.0586 2.90698 20.0356 2.90698 21.0859C2.90698 22.1362 3.37684 23.1133 4.19603 23.7666C5.21134 24.5764 5.57277 25.9353 5.09506 27.1481C4.70959 28.1267 4.7875 29.2096 5.30862 30.1191C5.82975 31.0287 6.72142 31.6382 7.75494 31.7911C9.03595 31.9807 10.0231 32.9755 10.2111 34.2666C10.3629 35.3081 10.9676 36.2068 11.8702 36.7319C12.7728 37.2569 13.8473 37.3355 14.8182 36.9472C15.1722 36.8056 15.539 36.7371 15.9005 36.7371C16.7679 36.7371 17.6064 37.131 18.1735 37.8532C18.8216 38.6788 19.7911 39.1523 20.8333 39.1523C21.8756 39.1523 22.8451 38.6788 23.4932 37.8533C24.2967 36.83 25.645 36.4658 26.8485 36.9473C27.8193 37.3355 28.8941 37.257 29.7965 36.7319C30.699 36.2067 31.3038 35.3081 31.4555 34.2665C31.6437 32.9754 32.6307 31.9807 33.9118 31.7911C34.9453 31.6382 35.8369 31.0287 36.358 30.1191C36.8792 29.2096 36.9571 28.1267 36.5716 27.1481C36.0939 25.9353 36.4552 24.5764 37.4706 23.7666ZM24.2751 16.7327L26.3362 18.7985L19.5316 25.6941L15.3385 21.511L17.3835 19.4289L19.5155 21.5559L24.2751 16.7327Z"></path></svg>