<svg xmlns="http://www.w3.org/2000/svg" width="51" height="51" fill="#178066" viewBox="0 0 51 51"><path d="M40.5878 29.7742C39.5708 29.7742 30.9629 29.7742 29.8974 29.7742L22.0328 24.5209C21.7735 24.2527 21.5362 23.9693 21.3188 23.6732C26.0349 19.5691 30.8656 15.6501 30.8656 10.12C30.8656 5.56574 27.7084 1.75659 23.2473 1.75659C20.6432 1.75659 18.5128 3.13334 17.018 5.27075C15.5235 3.13334 13.3927 1.75659 10.7889 1.75659C6.32641 1.75659 3.08784 5.05186 3.08784 9.59232C3.08784 14.7376 7.53337 18.9679 11.4212 22.4813V24.4469C10.9864 24.2926 10.5191 24.2078 10.0323 24.2078H4.47673C2.17927 24.2078 0.310059 26.0806 0.310059 28.3826C0.310059 29.4509 0.713343 30.4265 1.37451 31.1658C0.713343 31.9051 0.310059 32.8806 0.310059 33.949C0.310059 35.0173 0.713343 35.9929 1.37451 36.7322C0.713343 37.4715 0.310059 38.447 0.310059 39.5154C0.310059 40.5837 0.713343 41.5593 1.37451 42.2986C0.713343 43.0379 0.310059 44.0134 0.310059 45.0818C0.310059 47.3837 2.17927 49.2566 4.47673 49.2566H23.9212C24.1367 49.2566 24.3494 49.2062 24.5422 49.1098L29.8044 46.4734H33.6434V47.865C33.6434 48.3473 33.8926 48.7953 34.302 49.0489C34.5252 49.187 34.7784 49.2566 35.0323 49.2566C35.2446 49.2566 35.4573 49.208 35.6533 49.1098L41.2089 46.3266C41.6794 46.0907 41.9767 45.6091 41.9767 45.0818V31.1658C41.9767 30.3971 41.355 29.7742 40.5878 29.7742ZM5.86561 9.59232C5.86561 6.5703 7.84406 4.53979 10.7889 4.53979C14.106 4.53979 15.5578 8.28625 15.7126 8.71315C15.9115 9.26399 16.4338 9.63037 17.0183 9.63037C17.6028 9.63037 18.1247 9.26363 18.324 8.71315C18.4785 8.28588 19.9296 4.53979 23.2473 4.53979C26.0067 4.53979 28.0878 6.93886 28.0878 10.12C28.0878 12.4476 26.8512 14.7036 24.0781 17.4342C22.9327 18.5624 21.5897 19.7485 20.0572 21.0843C19.859 20.3758 19.7545 19.6361 19.7545 18.8802V14.4666C19.7545 13.6979 19.1328 13.075 18.3656 13.075C14.9599 13.075 12.121 15.545 11.5344 18.7907C7.91206 15.3171 5.86561 12.5339 5.86561 9.59232ZM3.08784 39.5154C3.08784 38.7482 3.71103 38.1238 4.47673 38.1238H10.0323C10.798 38.1238 11.4212 38.7482 11.4212 39.5154C11.4212 40.2826 10.798 40.907 10.0323 40.907H4.47673C3.71103 40.907 3.08784 40.2826 3.08784 39.5154ZM3.08784 33.949C3.08784 33.1818 3.71103 32.5574 4.47673 32.5574H10.0323C10.798 32.5574 11.4212 33.1818 11.4212 33.949C11.4212 34.7162 10.798 35.3406 10.0323 35.3406H4.47673C3.71103 35.3406 3.08784 34.7162 3.08784 33.949ZM4.47673 26.991H10.0323C10.798 26.991 11.4212 27.6154 11.4212 28.3826C11.4212 29.1498 10.798 29.7742 10.0323 29.7742H4.47673C3.71103 29.7742 3.08784 29.1498 3.08784 28.3826C3.08784 27.6154 3.71103 26.991 4.47673 26.991ZM3.08784 45.0818C3.08784 44.3146 3.71103 43.6902 4.47673 43.6902H10.0323C10.798 43.6902 11.4212 44.3146 11.4212 45.0818C11.4212 45.849 10.798 46.4734 10.0323 46.4734H4.47673C3.71103 46.4734 3.08784 45.849 3.08784 45.0818ZM29.4767 43.6902C29.2612 43.6902 29.0485 43.7406 28.8557 43.837L23.5935 46.4734H13.9602C14.1143 46.0378 14.1989 45.5696 14.1989 45.0818C14.1989 44.0134 13.7957 43.0379 13.1345 42.2986C13.796 41.5593 14.1989 40.5837 14.1989 39.5154C14.1989 38.447 13.7957 37.4715 13.1345 36.7322C13.141 36.7249 13.1475 36.7173 13.154 36.7097C14.9111 39.2443 17.8368 40.907 21.1434 40.907C21.9105 40.907 22.5323 40.284 22.5323 39.5154C22.5323 38.7467 21.9105 38.1238 21.1434 38.1238C17.3142 38.1238 14.1989 35.0025 14.1989 31.1658V20.033C14.1989 18.2188 15.36 16.671 16.9767 16.0966V18.8802C16.9767 21.7899 18.1077 24.5256 20.1614 26.5833C20.3423 26.7645 19.9108 26.4372 28.7063 32.3236C28.9346 32.4758 29.2026 32.5574 29.4767 32.5574H33.6434V43.6902H29.4767ZM39.199 44.2218L36.4212 45.6134V32.5574H39.199V44.2218Z"></path></svg>