<svg xmlns="http://www.w3.org/2000/svg" width="68" height="49" fill="#178066" viewBox="0 0 68 49"><path d="M51.2663 48.4998H35.0158C34.7464 48.4998 34.4881 48.3928 34.2976 48.2024C34.1071 48.0119 34.0001 47.7536 34.0001 47.4842V12.9518C34.0001 12.6824 34.1071 12.4241 34.2976 12.2336C34.4881 12.0432 34.7464 11.9362 35.0158 11.9362H51.2663C51.5357 11.9362 51.794 12.0432 51.9845 12.2336C52.1749 12.4241 52.282 12.6824 52.282 12.9518V47.4842C52.282 47.7536 52.1749 48.0119 51.9845 48.2024C51.794 48.3928 51.5357 48.4998 51.2663 48.4998ZM36.0314 46.4685H50.2506V13.9675H36.0314V46.4685ZM30.9531 48.4998H16.7339C16.4646 48.4998 16.2062 48.3928 16.0157 48.2024C15.8253 48.0119 15.7183 47.7536 15.7183 47.4842V9.3767C15.7178 9.19399 15.7666 9.01453 15.8595 8.85723C15.9525 8.69993 16.0861 8.57062 16.2464 8.48292L30.4656 0.621726C30.6205 0.536983 30.7948 0.494075 30.9713 0.497233C31.1478 0.500391 31.3205 0.549506 31.4722 0.639734C31.624 0.729962 31.7496 0.858187 31.8367 1.01176C31.9237 1.16534 31.9693 1.33896 31.9688 1.5155V47.4842C31.9688 47.7536 31.8618 48.0119 31.6713 48.2024C31.4808 48.3928 31.2225 48.4998 30.9531 48.4998ZM17.7496 46.4685H29.9375V3.24212L17.7496 9.98609V46.4685Z"></path><path d="M24.8591 40.3747H22.8278C22.5584 40.3747 22.3001 40.2677 22.1096 40.0772C21.9191 39.8868 21.8121 39.6284 21.8121 39.3591C21.8121 39.0897 21.9191 38.8314 22.1096 38.6409C22.3001 38.4504 22.5584 38.3434 22.8278 38.3434H24.8591C25.1285 38.3434 25.3868 38.4504 25.5773 38.6409C25.7678 38.8314 25.8748 39.0897 25.8748 39.3591C25.8748 39.6284 25.7678 39.8868 25.5773 40.0772C25.3868 40.2677 25.1285 40.3747 24.8591 40.3747ZM24.8591 36.3121H22.8278C22.5584 36.3121 22.3001 36.2051 22.1096 36.0146C21.9191 35.8241 21.8121 35.5658 21.8121 35.2964C21.8121 35.0271 21.9191 34.7687 22.1096 34.5783C22.3001 34.3878 22.5584 34.2808 22.8278 34.2808H24.8591C25.1285 34.2808 25.3868 34.3878 25.5773 34.5783C25.7678 34.7687 25.8748 35.0271 25.8748 35.2964C25.8748 35.5658 25.7678 35.8241 25.5773 36.0146C25.3868 36.2051 25.1285 36.3121 24.8591 36.3121ZM24.8591 32.2495H22.8278C22.5584 32.2495 22.3001 32.1425 22.1096 31.952C21.9191 31.7615 21.8121 31.5032 21.8121 31.2338C21.8121 30.9644 21.9191 30.7061 22.1096 30.5156C22.3001 30.3251 22.5584 30.2181 22.8278 30.2181H24.8591C25.1285 30.2181 25.3868 30.3251 25.5773 30.5156C25.7678 30.7061 25.8748 30.9644 25.8748 31.2338C25.8748 31.5032 25.7678 31.7615 25.5773 31.952C25.3868 32.1425 25.1285 32.2495 24.8591 32.2495ZM24.8591 28.1868H22.8278C22.5584 28.1868 22.3001 28.0798 22.1096 27.8893C21.9191 27.6989 21.8121 27.4405 21.8121 27.1712C21.8121 26.9018 21.9191 26.6435 22.1096 26.453C22.3001 26.2625 22.5584 26.1555 22.8278 26.1555H24.8591C25.1285 26.1555 25.3868 26.2625 25.5773 26.453C25.7678 26.6435 25.8748 26.9018 25.8748 27.1712C25.8748 27.4405 25.7678 27.6989 25.5773 27.8893C25.3868 28.0798 25.1285 28.1868 24.8591 28.1868ZM24.8591 24.1242H22.8278C22.5584 24.1242 22.3001 24.0172 22.1096 23.8267C21.9191 23.6362 21.8121 23.3779 21.8121 23.1085C21.8121 22.8392 21.9191 22.5808 22.1096 22.3904C22.3001 22.1999 22.5584 22.0929 22.8278 22.0929H24.8591C25.1285 22.0929 25.3868 22.1999 25.5773 22.3904C25.7678 22.5808 25.8748 22.8392 25.8748 23.1085C25.8748 23.3779 25.7678 23.6362 25.5773 23.8267C25.3868 24.0172 25.1285 24.1242 24.8591 24.1242ZM24.8591 20.0616H22.8278C22.5584 20.0616 22.3001 19.9546 22.1096 19.7641C21.9191 19.5736 21.8121 19.3153 21.8121 19.0459C21.8121 18.7765 21.9191 18.5182 22.1096 18.3277C22.3001 18.1373 22.5584 18.0302 22.8278 18.0302H24.8591C25.1285 18.0302 25.3868 18.1373 25.5773 18.3277C25.7678 18.5182 25.8748 18.7765 25.8748 19.0459C25.8748 19.3153 25.7678 19.5736 25.5773 19.7641C25.3868 19.9546 25.1285 20.0616 24.8591 20.0616ZM24.8591 15.9989H22.8278C22.5584 15.9989 22.3001 15.8919 22.1096 15.7015C21.9191 15.511 21.8121 15.2526 21.8121 14.9833C21.8121 14.7139 21.9191 14.4556 22.1096 14.2651C22.3001 14.0746 22.5584 13.9676 22.8278 13.9676H24.8591C25.1285 13.9676 25.3868 14.0746 25.5773 14.2651C25.7678 14.4556 25.8748 14.7139 25.8748 14.9833C25.8748 15.2526 25.7678 15.511 25.5773 15.7015C25.3868 15.8919 25.1285 15.9989 24.8591 15.9989ZM39.0783 42.406C38.8089 42.406 38.5506 42.299 38.3601 42.1086C38.1697 41.9181 38.0627 41.6598 38.0627 41.3904V21.0772C38.0627 20.8079 38.1697 20.5495 38.3601 20.359C38.5506 20.1686 38.8089 20.0616 39.0783 20.0616C39.3477 20.0616 39.606 20.1686 39.7965 20.359C39.987 20.5495 40.094 20.8079 40.094 21.0772V41.3904C40.094 41.6598 39.987 41.9181 39.7965 42.1086C39.606 42.299 39.3477 42.406 39.0783 42.406ZM43.1409 42.406C42.8716 42.406 42.6132 42.299 42.4228 42.1086C42.2323 41.9181 42.1253 41.6598 42.1253 41.3904V21.0772C42.1253 20.8079 42.2323 20.5495 42.4228 20.359C42.6132 20.1686 42.8716 20.0616 43.1409 20.0616C43.4103 20.0616 43.6687 20.1686 43.8591 20.359C44.0496 20.5495 44.1566 20.8079 44.1566 21.0772V41.3904C44.1566 41.6598 44.0496 41.9181 43.8591 42.1086C43.6687 42.299 43.4103 42.406 43.1409 42.406ZM47.2036 42.406C46.9342 42.406 46.6759 42.299 46.4854 42.1086C46.2949 41.9181 46.1879 41.6598 46.1879 41.3904V21.0772C46.1879 20.8079 46.2949 20.5495 46.4854 20.359C46.6759 20.1686 46.9342 20.0616 47.2036 20.0616C47.4729 20.0616 47.7313 20.1686 47.9218 20.359C48.1122 20.5495 48.2192 20.8079 48.2192 21.0772V41.3904C48.2192 41.6598 48.1122 41.9181 47.9218 42.1086C47.7313 42.299 47.4729 42.406 47.2036 42.406ZM56.3445 48.5H11.6556C11.3862 48.5 11.1278 48.393 10.9374 48.2025C10.7469 48.012 10.6399 47.7537 10.6399 47.4843C10.6399 47.215 10.7469 46.9566 10.9374 46.7662C11.1278 46.5757 11.3862 46.4687 11.6556 46.4687H56.3445C56.6139 46.4687 56.8722 46.5757 57.0627 46.7662C57.2532 46.9566 57.3602 47.215 57.3602 47.4843C57.3602 47.7537 57.2532 48.012 57.0627 48.2025C56.8722 48.393 56.6139 48.5 56.3445 48.5ZM43.1409 13.9676C42.8716 13.9676 42.6132 13.8606 42.4228 13.6701C42.2323 13.4797 42.1253 13.2213 42.1253 12.952V4.82669C42.1253 4.55732 42.2323 4.29899 42.4228 4.10851C42.6132 3.91804 42.8716 3.81104 43.1409 3.81104C43.4103 3.81104 43.6687 3.91804 43.8591 4.10851C44.0496 4.29899 44.1566 4.55732 44.1566 4.82669V12.952C44.1566 13.2213 44.0496 13.4797 43.8591 13.6701C43.6687 13.8606 43.4103 13.9676 43.1409 13.9676Z"></path><path d="M51.2662 42.4058H35.0157C34.7463 42.4058 34.488 42.2988 34.2975 42.1083C34.107 41.9179 34 41.6595 34 41.3902C34 41.1208 34.107 40.8625 34.2975 40.672C34.488 40.4815 34.7463 40.3745 35.0157 40.3745H51.2662C51.5356 40.3745 51.7939 40.4815 51.9844 40.672C52.1748 40.8625 52.2818 41.1208 52.2818 41.3902C52.2818 41.6595 52.1748 41.9179 51.9844 42.1083C51.7939 42.2988 51.5356 42.4058 51.2662 42.4058Z"></path></svg>