<svg xmlns="http://www.w3.org/2000/svg" width="48" height="48" fill="#178066" viewBox="0 0 48 48"><path d="M39.7966 10.708C39.7966 9.94792 39.179 9.33173 38.4174 9.33173C37.6558 9.33173 37.0384 9.94792 37.0384 10.708C37.0384 11.5939 36.4812 12.5967 35.9445 13.3405C32.5679 9.52336 27.2823 7.0607 21.351 7.0607C20.005 7.0607 18.6667 7.18796 17.3606 7.43986C14.965 4.82309 11.2803 4.78979 11.1114 4.78979C10.7458 4.78979 10.3945 4.93483 10.136 5.19278C9.87731 5.451 9.73198 5.80107 9.73198 6.16616V10.6636C7.63241 12.1542 5.93202 14.0274 4.75504 16.1444H2.00902C1.24745 16.1444 0.629883 16.7608 0.629883 17.5207V28.8755C0.629883 29.6354 1.24745 30.2517 2.00902 30.2517H4.75478C5.46848 31.5366 6.37367 32.73 7.45636 33.8131V40.2301C7.45636 40.9901 8.07392 41.6065 8.8355 41.6065H15.6621C16.4237 41.6065 17.0412 40.9901 17.0412 40.2301V38.8931C18.4457 39.187 19.8889 39.3356 21.351 39.3356C22.8119 39.3356 24.255 39.1868 25.6607 38.8923V40.2301C25.6607 40.9901 26.2782 41.6065 27.0398 41.6065H33.8664C34.628 41.6065 35.2456 40.9901 35.2456 40.2301V33.8154C38.1849 30.8742 39.7966 27.1262 39.7966 23.1981C39.7966 20.4695 39.0174 17.8975 37.645 15.6417C38.4363 14.7019 39.7966 12.7846 39.7966 10.708ZM32.9247 32.2267C32.6458 32.4872 32.4874 32.8511 32.4874 33.2323V38.854H28.419V37.1184C28.419 36.6819 28.2115 36.2712 27.8599 36.0118C27.5082 35.7521 27.0543 35.6745 26.6359 35.8024C24.9414 36.3205 23.1635 36.5831 21.3512 36.5831C19.5366 36.5831 17.7586 36.3208 16.0663 35.8033C15.6481 35.6755 15.1941 35.7533 14.8424 36.0127C14.4907 36.2724 14.2832 36.6829 14.2832 37.1193V38.8541H10.2149V33.2305C10.2149 32.8495 10.0565 32.4853 9.77761 32.225C8.52493 31.0562 7.53535 29.7285 6.83628 28.279C6.60656 27.8024 6.12363 27.4995 5.59363 27.4995H3.38803V18.8974H5.5935C6.12337 18.8974 6.60643 18.5945 6.83615 18.1179C7.89523 15.9215 9.63387 13.9942 11.8637 12.545C12.2546 12.2908 12.4903 11.8569 12.4903 11.3915V7.74335C13.504 7.98933 14.845 8.5355 15.6835 9.74683C16.0068 10.2138 16.5846 10.4345 17.1378 10.3033C17.7681 10.1535 18.4098 10.0393 19.058 9.95806C18.917 10.174 18.8342 10.4313 18.8342 10.7082C18.8342 11.4683 19.4518 12.0846 20.2133 12.0846H24.7645C25.526 12.0846 26.1435 11.4683 26.1435 10.7082C26.1435 10.6185 26.1344 10.5309 26.1179 10.4461C32.4444 12.1716 37.0387 17.2355 37.0387 23.1984C37.0384 26.5462 35.5775 29.7528 32.9247 32.2267ZM11.1107 18.4153C10.7481 18.4153 10.3936 18.5625 10.1356 18.8185C9.87915 19.0746 9.73172 19.4298 9.73172 19.7917C9.73172 20.1536 9.87915 20.5087 10.1356 20.7647C10.3921 21.0207 10.7481 21.1681 11.1107 21.1681C11.4748 21.1681 11.8292 21.0207 12.0857 20.7647C12.3436 20.5088 12.4899 20.1536 12.4899 19.7917C12.4899 19.4298 12.3436 19.0747 12.0857 18.8185C11.8292 18.5625 11.4734 18.4153 11.1107 18.4153Z"></path></svg>