<svg xmlns="http://www.w3.org/2000/svg" width="52" height="52" fill="#178066" viewBox="0 0 52 52"><path d="M22.912 6.97269C26.5796 6.97269 29.5634 9.94876 29.5635 13.6069V37.652C29.5635 41.3093 26.5804 44.2853 22.9137 44.2862L7.28296 44.2899C7.28254 44.2899 7.2818 44.2899 7.2813 44.2899C5.50477 44.2899 3.8349 43.6001 2.57857 42.3473C1.32192 41.0943 0.629883 39.4281 0.629883 37.6557V13.6069C0.629883 9.94876 3.61368 6.97269 7.2813 6.97269H22.912ZM26.2376 13.6069C26.2377 11.7778 24.7458 10.2898 22.9121 10.2897H7.2813C5.44749 10.2897 3.95559 11.7777 3.95559 13.6068V37.6556C3.95559 38.5419 4.30165 39.3749 4.92994 40.0014C5.55806 40.6278 6.39312 40.9727 7.2813 40.9727C7.28105 40.9727 7.28155 40.9727 7.2813 40.9727L22.9128 40.9691C24.7461 40.9687 26.2376 39.4806 26.2376 37.652V13.6069ZM41.46 31.0216C40.5417 31.0212 39.7975 30.2784 39.7978 29.3623L39.8028 15.9289H36.4763L36.4645 37.2615L38.0631 39.6427L40.0985 36.7794C40.6298 36.0321 41.6676 35.8559 42.4168 36.3857C43.166 36.9155 43.3426 37.9507 42.8115 38.6979L39.3803 43.5246C39.0683 43.9637 38.5625 44.224 38.024 44.224C38.0166 44.224 38.0091 44.2239 38.0017 44.2238C37.4547 44.2165 36.9465 43.9416 36.6422 43.4882L33.4197 38.6878C33.2362 38.4146 33.1384 38.093 33.1386 37.7642L33.1528 11.8646C33.1528 9.12199 35.3907 6.88989 38.1414 6.88989C40.892 6.88989 43.1299 9.1219 43.1299 11.8655L43.1234 29.3638C43.1231 30.2794 42.3781 31.0216 41.46 31.0216C41.4602 31.0216 41.4599 31.0216 41.46 31.0216ZM36.4781 12.6117H39.8038L39.8041 11.8647C39.8041 10.9508 39.0582 10.2068 38.1413 10.2068C37.2245 10.2068 36.4785 10.9508 36.4785 11.8653L36.4781 12.6117ZM14.0989 30.6911C15.0173 30.6911 15.7618 31.4336 15.7617 32.3496C15.7617 33.2655 15.0173 34.0081 14.0989 34.0081H9.0272C8.10889 34.0081 7.36439 33.2656 7.36439 32.3496C7.36439 31.4337 8.1088 30.6911 9.0272 30.6911H14.0989ZM21.166 24.0569C22.0844 24.0569 22.8288 24.7995 22.8288 25.7154C22.8288 26.6313 22.0844 27.3739 21.166 27.3739H9.02729C8.10897 27.3739 7.36447 26.6314 7.36447 25.7154C7.36447 24.7995 8.10889 24.0569 9.02729 24.0569H21.166ZM21.166 17.4227C22.0844 17.4227 22.8289 18.1653 22.8289 19.0812C22.8289 19.9972 22.0845 20.7397 21.1661 20.7397H20.8243H9.02729C8.10897 20.7397 7.36447 19.9972 7.36447 19.0812C7.36447 18.1653 8.10889 17.4227 9.02729 17.4227H20.8242H21.166Z"></path></svg>