<svg xmlns="http://www.w3.org/2000/svg" width="44" height="45" fill="#178066" viewBox="0 0 44 45"><path d="M7.73573 18.1602C6.45215 18.1602 4.80012 17.4813 3.89314 16.5809L0.419276 13.1329C-0.140045 12.5775 -0.139758 11.6776 0.420136 11.1228C0.98003 10.5681 1.88744 10.5685 2.4469 11.1236L5.92106 14.5721C6.29322 14.9416 7.20894 15.318 7.73573 15.318H16.8093C16.9586 15.318 17.0332 15.2244 17.0332 15.2024C17.0332 15.1802 16.9586 15.087 16.8093 15.087H13.9295C12.4482 15.087 11.9321 14.2344 11.7792 13.8678C11.6262 13.5013 11.3831 12.5367 12.4307 11.4979L13.1839 10.75C14.1408 9.80014 15.8732 9.22793 17.2124 9.41739L23.4354 10.2999L17.8757 7.93514C17.321 7.69949 16.2436 7.61379 15.6582 7.7589L12.6793 8.49811C11.875 8.69737 10.5525 9.14905 9.79116 9.48433L9.33287 9.6863C7.93206 10.3034 6.09546 9.92322 5.06008 8.80169L1.9247 5.40413C1.39031 4.8251 1.43058 3.926 2.01426 3.39601C2.59809 2.86602 3.50464 2.90595 4.03903 3.48484L7.17441 6.88212C7.37604 7.10071 7.89681 7.20873 8.16894 7.08834L8.62752 6.88624C9.54296 6.48302 11.0173 5.97975 11.9843 5.73998L14.9625 5.00106C16.1449 4.70756 17.8832 4.84543 19.0051 5.32227L26.7985 8.63697C27.7621 9.04729 28.4051 9.74912 28.5629 10.5629C28.691 11.2234 28.4841 11.8802 27.9955 12.3648C27.1158 13.2382 25.496 13.4633 24.3647 13.3029L17.6112 12.3452C18.9277 12.6841 19.8994 13.8366 19.8994 15.2021C19.8994 16.8332 18.5132 18.1602 16.8093 18.1602H7.73573ZM36.3093 29.107C36.7858 29.5795 36.7858 30.3458 36.3092 30.8183C35.8325 31.2907 35.0601 31.2907 34.5835 30.8183L29.8378 26.1115C29.3563 25.6338 28.2571 25.1823 27.5762 25.1823H15.1303C14.7996 25.1823 14.5202 25.4594 14.5202 25.7874V26.1504C14.5202 26.4784 14.7996 26.7555 15.1303 26.7555H19.523C20.9402 26.7555 21.4216 27.5416 21.5627 27.8796C21.7039 28.2176 21.924 29.1111 20.9219 30.105L19.4837 31.5314C18.5002 32.5069 16.7203 33.0969 15.3424 32.9006L4.87303 31.4172C4.39386 31.3493 3.84502 31.4537 3.47152 31.5995L14.1118 36.1221C14.7945 36.4123 16.0725 36.5141 16.793 36.3354L21.295 35.219C22.202 34.9942 23.69 34.4863 24.5444 34.1101L25.7335 33.5866C27.1214 32.9758 29.012 33.3667 30.0373 34.4773L34.333 39.129C34.7881 39.6218 34.7542 40.3875 34.2572 40.8389C34.0231 41.0515 33.7278 41.1565 33.4335 41.1565C33.1032 41.1565 32.774 41.0244 32.5332 40.7637L28.2377 36.1121C27.9131 35.7607 27.1632 35.6053 26.7237 35.7988L25.5346 36.3223C24.5423 36.7592 22.9401 37.3059 21.887 37.5671L17.385 38.6834C16.1456 38.9908 14.3251 38.8462 13.1504 38.3469L2.42192 33.7868C1.52227 33.4045 0.919136 32.7353 0.766857 31.9512C0.637029 31.2832 0.854711 30.6104 1.36402 30.1052C2.18374 29.2922 3.84063 28.8261 5.21786 29.0213L15.6872 30.5047C16.3084 30.5926 17.3145 30.26 17.758 29.8201L18.4073 29.1761H15.1303C13.4483 29.1761 12.0798 27.8189 12.0798 26.1507V25.7876C12.0798 24.1194 13.4483 22.7622 15.1303 22.7622H27.5762C28.9075 22.7622 30.6218 23.4663 31.5634 24.4002L36.3093 29.107Z"></path></svg>